<?xml version="1.0" encoding="iso-8859-1"?>
<!-- Generator: Adobe Illustrator 16.0.3, SVG Export Plug-In . SVG Version: 6.00 Build 0)  -->
<!DOCTYPE svg PUBLIC "-//W3C//DTD SVG 1.1//EN" "http://www.w3.org/Graphics/SVG/1.1/DTD/svg11.dtd">
<svg version="1.1" id="Capa_1" xmlns="http://www.w3.org/2000/svg" xmlns:xlink="http://www.w3.org/1999/xlink" x="0px" y="0px"
	 width="114.25px" height="100px" viewBox="0 0 114.25 100" style="enable-background:new 0 0 114.25 100;" xml:space="preserve">
<path style="fill-rule:evenodd;clip-rule:evenodd;fill:#455A65;" d="M71.981,26.204c-9.387,0-18.774,0-28.162,0
	c1.233-1.444,2.972-1.967,4.679-2.527c0.815-0.268,1.664-0.433,2.614-0.674c-0.52-0.667-0.987-1.28-1.467-1.881
	C45.017,15.31,40.385,9.5,35.754,3.688c-0.075-0.094-0.156-0.183-0.228-0.279C35.223,3,35.131,2.569,35.556,2.206
	c0.436-0.373,0.832-0.192,1.175,0.192c1.179,1.327,2.362,2.651,3.541,3.979c4.593,5.175,9.191,10.346,13.766,15.538
	c0.445,0.505,0.876,0.721,1.548,0.627c0.712-0.099,1.46-0.194,2.158-0.083c1.367,0.218,2.192-0.408,3.045-1.382
	C66.18,14.92,71.624,8.811,77.053,2.687c0.199-0.224,0.395-0.462,0.633-0.639c0.358-0.267,0.744-0.227,1.066,0.082
	c0.289,0.276,0.381,0.624,0.164,0.982c-0.17,0.281-0.378,0.542-0.585,0.798c-4.865,6.047-9.733,12.092-14.6,18.139
	c-0.167,0.207-0.319,0.425-0.516,0.688c1.232,0.27,2.417,0.46,3.563,0.793C68.677,24.083,70.588,24.652,71.981,26.204z"/>
<path style="fill-rule:evenodd;clip-rule:evenodd;fill:#83ADBE;" d="M109,30.554c0-2.779-1.73-4.348-4.52-4.348
	c-10.779-0.002-21.64-0.002-32.42-0.002c-0.395-0.268-0.881-0.295-1.338-0.295c-8.521-0.001-17.063-0.001-25.584,0
	c-0.457,0-0.915,0.03-1.309,0.296c-11.353,0.001-22.867,0.001-34.22,0.001C6.702,26.206,5,27.745,5,30.653
	C5,51.701,5,72.75,5,93.798C5,96.498,6.933,98,9.621,98c31.587,0,63.175,0,94.763,0c2.687,0,4.616-1.501,4.616-4.211
	C109,72.711,109,51.633,109,30.554z M84.228,67.607c-0.184,4.772-0.789,9.509-1.787,14.187c-0.623,2.934-2.596,4.525-6.016,5.102
	c-5.01,0.843-10.043,1.385-15.117,1.659c-5.021,0.271-10.043,0.387-15.066,0.274c-3.635-0.082-7.271-0.267-10.896-0.522
	c-4.881-0.346-9.734-0.959-14.555-1.81c-2.652-0.469-4.58-2.573-5.016-5.232c-0.77-4.688-1.283-9.39-1.486-14.141
	c-0.219-5.121-0.061-10.216,0.377-15.315c0.285-3.352,0.707-6.682,1.295-9.992c0.463-2.598,2.527-4.473,5.145-4.822
	c5.512-0.734,11.041-1.191,16.594-1.474c4.299-0.218,8.596-0.351,13.375-0.314c3.438-0.118,7.352,0.03,11.256,0.227
	c5.008,0.252,10.008,0.647,14.969,1.417c2.82,0.438,4.563,2.363,5.152,5.72c0.82,4.675,1.396,9.375,1.689,14.117
	C84.366,60.33,84.37,63.973,84.228,67.607z"/>
<path style="fill-rule:evenodd;clip-rule:evenodd;fill:#B8E3E9;" d="M11.767,94.189c-0.976-0.58-1.36-1.446-0.849-2.313
	c1.098-1.858,2.286-3.664,3.493-5.58c2.102,2.84,5.158,3.379,8.255,3.861c10.824,1.685,21.721,2.181,32.655,1.945
	c7.461-0.162,14.898-0.649,22.247-2.081c2.243-0.438,4.258-1.238,5.9-3.035c0.76,1.57,1.517,3.025,2.171,4.525
	c0.476,1.09,0.006,2.061-1.143,2.662c-0.586,0.146-1.18,0.162-1.781,0.162c-23.205-0.006-46.41-0.006-69.615-0.004
	C12.648,94.332,12.2,94.336,11.767,94.189z"/>
<path style="fill-rule:evenodd;clip-rule:evenodd;fill:#2F7788;" d="M105.119,33.352c0-2.392-1.153-3.352-3.548-3.352
	c-29.572,0-59.146,0-88.718,0C10.233,30,9,30.752,9,33.376c0,19.063,0,38.125,0,57.188c0,0.332,0.044,0.665,0.076,0.993
	c0.145,1.506,1.354,2.679,2.661,2.633c-0.024-0.119-0.053-0.234-0.138-0.321c-0.765-0.775-0.705-1.583-0.142-2.451
	c0.852-1.313,1.681-2.644,2.534-3.956c0.33-0.506,0.62-0.565,1.054-0.113c1.522,1.591,3.443,2.348,5.582,2.708
	c4.454,0.75,8.924,1.324,13.428,1.693c4.469,0.366,8.943,0.569,13.419,0.66c5.837,0.119,11.668-0.084,17.491-0.51
	c4.297-0.314,8.564-0.826,12.795-1.646c1.863-0.36,3.609-0.957,5.025-2.285c0.428-0.399,0.726-0.329,0.961,0.19
	c0.469,1.044,1.031,2.044,1.492,3.091c0.381,0.868,0.341,1.701-0.387,2.41c-0.151,0.146-0.3,0.299-0.354,0.514
	c0.259,0.322,0.617,0.164,0.925,0.165c5.39,0.012,10.78,0.01,16.172,0.009c2.397,0,3.527-1.033,3.527-3.445
	C105.124,71.688,105.122,52.565,105.119,33.352z M84.234,67.464c-0.185,4.772-0.789,9.509-1.787,14.187
	c-0.624,2.934-2.597,4.525-6.017,5.102c-5.009,0.843-10.043,1.385-15.117,1.659c-5.021,0.271-10.043,0.387-15.066,0.274
	c-3.635-0.082-7.271-0.267-10.896-0.522c-4.881-0.346-9.733-0.959-14.554-1.81c-2.653-0.469-4.58-2.573-5.017-5.232
	c-0.769-4.688-1.283-9.39-1.485-14.141c-0.219-5.121-0.061-10.216,0.376-15.315c0.286-3.352,0.707-6.682,1.296-9.992
	c0.463-2.598,2.526-4.474,5.145-4.823c5.511-0.734,11.041-1.192,16.593-1.474c4.299-0.218,8.597-0.351,13.376-0.314
	c3.438-0.118,7.351,0.03,11.256,0.227c5.007,0.252,10.008,0.647,14.968,1.417c2.821,0.438,4.563,2.363,5.152,5.719
	c0.82,4.674,1.396,9.375,1.69,14.117C84.373,60.187,84.376,63.829,84.234,67.464z"/>
<path style="fill-rule:evenodd;clip-rule:evenodd;fill:#465964;" d="M102.555,79.705c0,3.341,0.004,6.683-0.002,10.023
	c-0.004,1.244-0.639,1.889-1.872,1.893c-3.101,0.009-6.201,0.009-9.302,0.001c-1.45-0.004-2.197-0.715-2.199-2.142
	c-0.011-6.592-0.01-13.185,0-19.776c0.002-1.368,0.771-2.114,2.109-2.115c3.069-0.002,6.14-0.003,9.211,0
	c1.474,0.001,2.055,0.592,2.056,2.093c0.003,3.341,0.001,6.683,0.001,10.023C102.556,79.705,102.555,79.705,102.555,79.705z"/>
<path style="fill-rule:evenodd;clip-rule:evenodd;fill:#455A65;" d="M90.056,41.588c-0.221-3.146,2.558-5.958,5.871-5.98
	c3.324-0.021,5.905,2.863,5.91,5.803c0.005,3.54-2.631,6.055-5.914,6.071C92.53,47.499,89.843,44.601,90.056,41.588z"/>
<path style="fill-rule:evenodd;clip-rule:evenodd;fill:#455965;" d="M90.058,56.829c-0.195-2.997,2.578-5.938,5.967-5.874
	c3.184,0.061,5.858,2.785,5.822,5.978c-0.033,2.943-2.411,5.928-6.006,5.875C92.529,62.76,89.879,60.007,90.058,56.829z"/>
<path style="fill-rule:evenodd;clip-rule:evenodd;fill:#83ADBF;" d="M94.02,41.546c0.08-1.64,0.602-3.178,0.977-4.744
	c0.108-0.452,0.476-0.68,0.956-0.663c0.522,0.02,0.839,0.332,0.958,0.804c0.313,1.247,0.623,2.496,0.88,3.755
	c0.164,0.803,0.029,1.614-0.147,2.405c-0.224,0.992-0.473,1.978-0.72,2.964c-0.129,0.514-0.447,0.871-0.988,0.901
	c-0.521,0.028-0.86-0.317-0.968-0.783C94.61,44.646,94.092,43.137,94.02,41.546z"/>
<path style="fill-rule:evenodd;clip-rule:evenodd;fill:#82ADBE;" d="M92.658,53.117c0.056,0.01,0.216,0.008,0.347,0.069
	c2.259,1.059,4.601,1.996,5.947,4.324c0.313,0.542,0.745,1.016,1.114,1.526c0.314,0.434,0.4,0.904,0.012,1.316
	c-0.361,0.387-0.808,0.451-1.311,0.188c-1.039-0.542-2.115-1.016-3.143-1.58c-1.875-1.03-2.851-2.886-3.996-4.561
	C91.207,53.783,91.774,53.092,92.658,53.117z"/>
</svg>
